<svg data-v-fde0c5aa="" xmlns="http://www.w3.org/2000/svg" viewBox="0 0 300 300" class="iconAbove"><!---->
    <defs data-v-fde0c5aa="">
        <linearGradient data-v-fde0c5aa="" gradientTransform="rotate(25)"
            id="103fe6b4-ada3-4d18-abc2-8c853e3a5d54" x1="0%" y1="0%" x2="100%" y2="0%">
            <stop data-v-fde0c5aa="" offset="0%" stop-color="#0D2545" stop-opacity="1"></stop>
            <stop data-v-fde0c5aa="" offset="100%" stop-color="#A21F44" stop-opacity="1"></stop>
        </linearGradient>
    </defs>
    <rect data-v-fde0c5aa="" fill="url(#103fe6b4-ada3-4d18-abc2-8c853e3a5d54)" x="0" y="0"
        width="300px" height="300px" class="logo-background-square"></rect>
    <defs data-v-fde0c5aa=""><!---->
    </defs>
    <g data-v-fde0c5aa="" id="4b063a8e-4d83-4953-abcd-72734c7a31d8" fill="#ffffff"
        transform="matrix(6.05515541831337,0,0,6.05515541831337,12.214937402406342,195.57314138295)">
        <path
            d="M7.92 5.07C7.92 7.63 6.31 9.04 4.07 9.04L2.44 9.04L3.74 2.34L5.03 2.34C6.80 2.34 7.92 3.22 7.92 5.07ZM9.70 5.01C9.70 2.27 7.95 0.88 5.03 0.88L2.16 0.88L0.29 10.50L4.14 10.50C7.04 10.50 9.70 8.64 9.70 5.01ZM18.69 7.55C18.69 6.58 18.06 5.66 16.70 5.43C18.14 5.18 18.96 4.38 18.96 3.09C18.96 1.71 17.82 0.88 15.55 0.88L12.26 0.88L10.40 10.50L14.46 10.50C16.72 10.50 18.69 9.83 18.69 7.55ZM16.81 7.50C16.81 8.76 15.90 9.09 14.22 9.09L12.53 9.09L13.10 6.19L14.81 6.19C16.20 6.19 16.81 6.65 16.81 7.50ZM17.08 3.36C17.08 4.37 16.44 4.79 14.83 4.79L13.37 4.79L13.86 2.30L15.36 2.30C16.45 2.30 17.08 2.55 17.08 3.36ZM27.59 9.37L26.94 9.37C26.64 9.37 26.45 9.25 26.53 8.86L27.17 5.66C27.47 4.27 27.02 2.86 24.58 2.86C22.76 2.86 21.77 3.70 21.45 4.83L23.10 5.12C23.32 4.27 24.01 4.12 24.44 4.12C25.28 4.12 25.68 4.65 25.54 5.38L25.38 6.12L24.16 6.12C22.41 6.15 20.73 6.48 20.40 8.09C20.12 9.41 20.82 10.64 22.51 10.64C23.56 10.64 24.36 10.22 24.82 9.45C24.75 10.08 25.13 10.64 26.21 10.64C26.77 10.64 27.05 10.61 27.36 10.58ZM23.18 9.39C22.37 9.39 21.98 8.85 22.12 8.11C22.29 7.24 23.13 7.13 24.18 7.11L25.19 7.11L25.12 7.50C24.91 8.54 24.21 9.39 23.18 9.39ZM33.42 10.50L35.24 10.50L36.12 5.98C36.47 4.19 36.18 2.86 34.12 2.86C32.96 2.86 32.09 3.39 31.54 4.35L31.71 3.00L29.95 3.00C29.92 3.28 29.83 3.98 29.71 4.59L28.55 10.50L30.38 10.50L31.09 6.75C31.39 5.17 32.26 4.23 33.32 4.23C34.72 4.23 34.47 5.32 34.26 6.30ZM41.93 10.50L43.88 10.50L41.87 5.96L45.22 3.00L43.11 3.00L39.76 6.17L41.06-0.48L39.24-0.48L37.11 10.50L38.93 10.50L39.51 7.62L40.52 7.03Z"></path>
    </g>
    <defs data-v-fde0c5aa=""><!---->
    </defs>
    <g data-v-fde0c5aa="" id="33bc445d-2524-4b49-8b27-c7a2cb1c8a72" stroke="none" fill="#ffffff"
        transform="matrix(4.208333333333333,0,0,4.208333333333333,82.66666666666667,40)">
        <path
            d="M16 1c8.271 0 15 6.729 15 15s-6.729 15-15 15S1 24.271 1 16 7.729 1 16 1m0-1C7.163 0 0 7.163 0 16s7.163 16 16 16 16-7.163 16-16S24.837 0 16 0z"></path>
        <path
            d="M16 7.045L24.955 16 16 24.955 7.045 16 16 7.045m0-1.414L5.631 16 16 26.369 26.369 16 16 5.631z"></path>
    </g><!---->
</svg>